<?xml version="1.0" standalone="no"?><!DOCTYPE svg PUBLIC "-//W3C//DTD SVG 1.1//EN" "http://www.w3.org/Graphics/SVG/1.1/DTD/svg11.dtd"><svg t="1664291534671" class="icon" viewBox="0 0 1024 1024" version="1.1" xmlns="http://www.w3.org/2000/svg" p-id="2683" xmlns:xlink="http://www.w3.org/1999/xlink" width="200" height="200"><path d="M512.448 887.68C302.72 647.808 197.888 457.152 197.888 315.776 197.888 103.616 338.688 0 512.448 0c173.696 0 314.56 103.68 314.56 315.712 0 141.376-104.896 332.032-314.56 572.032z m0-409.664c96.512 0 174.72-76.416 174.72-170.752 0-94.272-78.208-170.688-174.72-170.688s-174.72 76.416-174.72 170.688c0 94.336 78.208 170.752 174.72 170.752z m-217.6 203.648l48.832 48.384c-91.072 22.08-151.68 61.44-151.68 106.368 0 69.12 143.296 125.056 320 125.056s320-56 320-125.056c0-44.416-59.328-83.456-148.736-105.6l48.512-48.192c99.328 33.92 164.224 90.112 164.224 153.792C896 940.032 724.096 1024 512 1024s-384-83.968-384-187.52c0-64.256 66.112-120.96 166.912-154.816z" p-id="2684"></path></svg>