<?xml version="1.0" standalone="no"?><!DOCTYPE svg PUBLIC "-//W3C//DTD SVG 1.1//EN" "http://www.w3.org/Graphics/SVG/1.1/DTD/svg11.dtd"><svg t="1664291772140" class="icon" viewBox="0 0 1025 1024" version="1.1" xmlns="http://www.w3.org/2000/svg" p-id="10268" xmlns:xlink="http://www.w3.org/1999/xlink" width="200.1953125" height="200"><path d="M677.9904 180.887273C677.9904 161.617455 662.351127 145.978182 643.081309 145.978182L163.616582 145.978182C144.346764 145.978182 128.707491 161.617455 128.707491 180.887273 128.707491 200.157091 144.346764 215.796364 163.616582 215.796364L643.081309 215.796364C662.351127 215.796364 677.9904 200.157091 677.9904 180.887273ZM163.625891 268.022691C144.356073 268.022691 128.7168 283.661964 128.7168 302.931782 128.7168 322.2016 144.356073 337.840873 163.625891 337.840873L466.683345 337.840873C485.976436 337.840873 501.592436 322.2016 501.592436 302.931782 501.592436 283.661964 485.976436 268.022691 466.683345 268.022691L163.625891 268.022691ZM805.308509 394.295855 694.646691 504.957673 583.984873 394.295855C570.347055 380.658036 548.261236 380.658036 534.623418 394.295855 520.9856 407.933673 520.9856 430.019491 534.623418 443.657309L624.083782 533.117673 576.747055 533.117673C557.477236 533.117673 541.837964 548.756945 541.837964 568.026764 541.837964 587.296582 557.477236 602.935855 576.747055 602.935855L659.7376 602.935855 659.7376 631.002764 576.747055 631.002764C557.477236 631.002764 541.837964 646.642036 541.837964 665.911855 541.837964 685.181673 557.477236 700.820945 576.747055 700.820945L659.7376 700.820945 659.7376 761.562764C659.7376 780.832582 675.376873 796.471855 694.646691 796.471855 713.916509 796.471855 729.555782 780.832582 729.555782 761.562764L729.555782 700.820945 812.5696 700.820945C831.839418 700.820945 847.478691 685.181673 847.478691 665.911855 847.478691 646.642036 831.839418 631.002764 812.5696 631.002764L729.555782 631.002764 729.555782 602.935855 812.5696 602.935855C831.839418 602.935855 847.478691 587.296582 847.478691 568.026764 847.478691 548.756945 831.839418 533.117673 812.5696 533.117673L765.2096 533.117673 854.669964 443.657309C868.307782 430.019491 868.307782 407.933673 854.669964 394.295855 841.032145 380.658036 818.946327 380.658036 805.308509 394.295855ZM1023.627636 95.045818C1023.627636 42.635636 980.968727 0 928.512 0L95.115636 0.093091C42.658909 0.093091 0 42.728727 0 95.138909L0 989.090909C0 1008.360727 15.616 1024 34.909091 1024L39.656727 1024C48.500364 1024 57.018182 1020.625455 63.464727 1014.621091L155.904 928.325818 248.32 1014.621091C254.766545 1020.625455 263.284364 1024 272.128 1024L282.181818 1024C291.025455 1024 299.543273 1020.625455 305.989818 1014.621091L398.429091 928.302545 490.845091 1014.621091C497.314909 1020.625455 505.832727 1024 514.676364 1024L524.730182 1024C533.550545 1024 542.091636 1020.625455 548.538182 1014.621091L640.977455 928.325818 733.370182 1014.621091C740.096 1020.881455 748.660364 1024 757.201455 1024 766.510545 1024 775.842909 1020.276364 782.708364 1012.898909 795.880727 998.818909 795.112727 976.733091 781.009455 963.560727L664.785455 855.016727C651.380364 842.519273 630.551273 842.519273 617.146182 855.016727L519.703273 946.013091 422.237091 855.016727C408.832 842.519273 388.002909 842.519273 374.597818 855.016727L277.154909 946.013091 179.712 855.016727C166.306909 842.519273 145.501091 842.519273 132.072727 855.016727L69.818182 913.152 69.818182 95.138909C69.818182 81.221818 81.152 69.911273 95.115636 69.911273L928.512 69.818182C942.475636 69.818182 953.809455 81.128727 953.809455 95.045818L953.809455 906.984727 954.181818 979.758545C954.274909 998.958545 969.867636 1014.481455 989.090909 1014.481455L989.207273 1014.481455C1008.546909 1014.388364 1024.093091 998.679273 1024 979.386182L1023.627636 95.045818Z" p-id="10269"></path></svg>